<mxfile host="Electron" agent="Mozilla/5.0 (Windows NT 10.0; Win64; x64) AppleWebKit/537.36 (KHTML, like Gecko) draw.io/28.0.6 Chrome/138.0.7204.100 Electron/37.2.3 Safari/537.36" version="28.0.6" pages="3">
  <diagram name="olo_axi_master_simple" id="sQZPAQ0m2a0brsjAJA3f">
    <mxGraphModel dx="1554" dy="914" grid="1" gridSize="10" guides="1" tooltips="1" connect="1" arrows="1" fold="1" page="1" pageScale="1" pageWidth="10000" pageHeight="10000" math="0" shadow="0">
      <root>
        <mxCell id="0" />
        <mxCell id="1" parent="0" />
        <mxCell id="L9xH7E7Yp6ftNxaXyzUH-43" value="" style="rounded=1;whiteSpace=wrap;html=1;fillColor=#f5f5f5;fontColor=#333333;strokeColor=#666666;arcSize=10;" parent="1" vertex="1">
          <mxGeometry x="540" y="339" width="260" height="241" as="geometry" />
        </mxCell>
        <mxCell id="MJSwwwkBB9a8yZKQljs4-28" value="olo_axi_master_simple" style="text;html=1;align=left;verticalAlign=middle;whiteSpace=wrap;rounded=0;" parent="1" vertex="1">
          <mxGeometry x="560" y="319" width="60" height="20" as="geometry" />
        </mxCell>
        <mxCell id="MJSwwwkBB9a8yZKQljs4-29" value="Write Data" style="text;html=1;align=right;verticalAlign=middle;whiteSpace=wrap;rounded=0;" parent="1" vertex="1">
          <mxGeometry x="460" y="369" width="60" height="20" as="geometry" />
        </mxCell>
        <mxCell id="L9xH7E7Yp6ftNxaXyzUH-1" style="vsdxID=5;fillColor=none;gradientColor=none;strokeColor=none;labelBackgroundColor=none;rounded=0;html=1;whiteSpace=wrap;" parent="1" vertex="1">
          <mxGeometry x="560" y="359" width="80" height="40" as="geometry" />
        </mxCell>
        <mxCell id="L9xH7E7Yp6ftNxaXyzUH-2" value="" style="verticalAlign=middle;align=center;vsdxID=6;fillColor=#dae8fc;shape=stencil(nZBLDoAgDERP0z3SIyjew0SURgSD+Lu9kMZoXLhwN9O+tukAlrNpJg1SzDH4QW/URgNYgZTkjA4UkwJUgGXng+6DX1zLfmoymdXo17xh5zmRJ6Q42BWCfc2oJfdAr+Yv+AP9Cb7OJ3H/2JG1HNGz/84klThPVCc=);strokeColor=#6c8ebf;spacingTop=-3;spacingBottom=-3;spacingLeft=-3;spacingRight=-3;labelBackgroundColor=none;rounded=0;html=1;whiteSpace=wrap;" parent="L9xH7E7Yp6ftNxaXyzUH-1" vertex="1">
          <mxGeometry x="20" width="60" height="40" as="geometry" />
        </mxCell>
        <mxCell id="L9xH7E7Yp6ftNxaXyzUH-3" style="vsdxID=8;fillColor=#FFFFFF;gradientColor=none;shape=stencil(UzV2Ls5ILEhVNTIoLinKz04tz0wpyVA1dlE1MsrMy0gtyiwBslSNXVWNndPyi1LTi/JL81Ig/IJEkEoQKze/DGRCBUSfAUiHkUElMs8NojAnMw9JoaEB2UphfKyK8SoFMhAOh/gZWQ7dk0AhSAAZuwIA);strokeColor=#000000;labelBackgroundColor=#ffffff;rounded=0;html=1;whiteSpace=wrap;" parent="L9xH7E7Yp6ftNxaXyzUH-1" vertex="1">
          <mxGeometry x="36" y="10" width="24" height="20" as="geometry" />
        </mxCell>
        <mxCell id="L9xH7E7Yp6ftNxaXyzUH-4" style="vsdxID=7;edgeStyle=none;startArrow=none;endArrow=classic;startSize=5;endSize=5;strokeColor=#000000;spacingTop=0;spacingBottom=0;spacingLeft=0;spacingRight=0;verticalAlign=middle;html=1;labelBackgroundColor=#ffffff;rounded=0;" parent="L9xH7E7Yp6ftNxaXyzUH-1" edge="1">
          <mxGeometry relative="1" as="geometry">
            <mxPoint as="offset" />
            <Array as="points" />
            <mxPoint x="24" y="20" as="sourcePoint" />
            <mxPoint x="40" y="20" as="targetPoint" />
          </mxGeometry>
        </mxCell>
        <mxCell id="L9xH7E7Yp6ftNxaXyzUH-5" style="vsdxID=9;edgeStyle=none;startArrow=none;endArrow=none;startSize=5;endSize=5;strokeColor=#000000;spacingTop=0;spacingBottom=0;spacingLeft=0;spacingRight=0;verticalAlign=middle;html=1;labelBackgroundColor=#ffffff;rounded=0;" parent="L9xH7E7Yp6ftNxaXyzUH-1" edge="1">
          <mxGeometry relative="1" as="geometry">
            <Array as="points" />
            <mxPoint x="52" y="10" as="sourcePoint" />
            <mxPoint x="52" y="30" as="targetPoint" />
          </mxGeometry>
        </mxCell>
        <mxCell id="L9xH7E7Yp6ftNxaXyzUH-6" style="vsdxID=10;edgeStyle=none;startArrow=none;endArrow=none;startSize=5;endSize=5;strokeColor=#000000;spacingTop=0;spacingBottom=0;spacingLeft=0;spacingRight=0;verticalAlign=middle;html=1;labelBackgroundColor=#ffffff;rounded=0;" parent="L9xH7E7Yp6ftNxaXyzUH-1" edge="1">
          <mxGeometry relative="1" as="geometry">
            <Array as="points" />
            <mxPoint x="44" y="10" as="sourcePoint" />
            <mxPoint x="44" y="30" as="targetPoint" />
          </mxGeometry>
        </mxCell>
        <mxCell id="L9xH7E7Yp6ftNxaXyzUH-7" style="vsdxID=11;edgeStyle=none;startArrow=none;endArrow=classic;startSize=5;endSize=5;strokeColor=#000000;spacingTop=0;spacingBottom=0;spacingLeft=0;spacingRight=0;verticalAlign=middle;html=1;labelBackgroundColor=#ffffff;rounded=0;" parent="L9xH7E7Yp6ftNxaXyzUH-1" edge="1">
          <mxGeometry relative="1" as="geometry">
            <mxPoint as="offset" />
            <Array as="points" />
            <mxPoint x="60" y="20" as="sourcePoint" />
            <mxPoint x="76" y="20" as="targetPoint" />
          </mxGeometry>
        </mxCell>
        <mxCell id="L9xH7E7Yp6ftNxaXyzUH-8" style="vsdxID=12;edgeStyle=none;startArrow=none;endArrow=none;startSize=5;endSize=5;strokeColor=#000000;spacingTop=0;spacingBottom=0;spacingLeft=0;spacingRight=0;verticalAlign=middle;html=1;labelBackgroundColor=#ffffff;rounded=0;" parent="L9xH7E7Yp6ftNxaXyzUH-1" edge="1">
          <mxGeometry relative="1" as="geometry">
            <Array as="points" />
            <mxPoint x="56" y="10" as="sourcePoint" />
            <mxPoint x="56" y="30" as="targetPoint" />
          </mxGeometry>
        </mxCell>
        <mxCell id="L9xH7E7Yp6ftNxaXyzUH-9" style="vsdxID=13;edgeStyle=none;startArrow=none;endArrow=none;startSize=5;endSize=5;strokeColor=#000000;spacingTop=0;spacingBottom=0;spacingLeft=0;spacingRight=0;verticalAlign=middle;html=1;labelBackgroundColor=#ffffff;rounded=0;" parent="L9xH7E7Yp6ftNxaXyzUH-1" edge="1">
          <mxGeometry relative="1" as="geometry">
            <Array as="points" />
            <mxPoint x="48" y="10" as="sourcePoint" />
            <mxPoint x="48" y="30" as="targetPoint" />
          </mxGeometry>
        </mxCell>
        <mxCell id="L9xH7E7Yp6ftNxaXyzUH-10" style="vsdxID=14;edgeStyle=none;startArrow=none;endArrow=classic;startSize=5;endSize=5;strokeColor=#000000;spacingTop=0;spacingBottom=0;spacingLeft=0;spacingRight=0;verticalAlign=middle;html=1;labelBackgroundColor=#ffffff;rounded=0;" parent="L9xH7E7Yp6ftNxaXyzUH-1" edge="1">
          <mxGeometry relative="1" as="geometry">
            <mxPoint as="offset" />
            <Array as="points" />
            <mxPoint y="20" as="sourcePoint" />
            <mxPoint x="20" y="20" as="targetPoint" />
          </mxGeometry>
        </mxCell>
        <mxCell id="L9xH7E7Yp6ftNxaXyzUH-11" value="Write Logic" style="verticalAlign=middle;align=center;vsdxID=5;fillColor=#e1eaff;gradientColor=none;shape=stencil(nZBLDoAgDERP0z3SIyjew0SURgSD+Lu9kMZoXLhwN9O+tukAlrNpJg1SzDH4QW/URgNYgZTkjA4UkwJUgGXng+6DX1zLfmoymdXo17xh5zmRJ6Q42BWCfc2oJfdAr+Yv+AP9Cb7OJ3H/2JG1HNGz/84klThPVCc=);strokeColor=#000000;labelBackgroundColor=none;rounded=0;html=1;whiteSpace=wrap;" parent="1" vertex="1">
          <mxGeometry x="680" y="359" width="80" height="91" as="geometry" />
        </mxCell>
        <mxCell id="L9xH7E7Yp6ftNxaXyzUH-12" value="" style="endArrow=classic;html=1;rounded=0;endFill=1;" parent="1" edge="1">
          <mxGeometry width="50" height="50" relative="1" as="geometry">
            <mxPoint x="640" y="378.86" as="sourcePoint" />
            <mxPoint x="680" y="379" as="targetPoint" />
          </mxGeometry>
        </mxCell>
        <mxCell id="L9xH7E7Yp6ftNxaXyzUH-13" value="" style="endArrow=none;html=1;rounded=0;" parent="1" edge="1">
          <mxGeometry width="50" height="50" relative="1" as="geometry">
            <mxPoint x="520" y="379" as="sourcePoint" />
            <mxPoint x="560" y="379" as="targetPoint" />
          </mxGeometry>
        </mxCell>
        <mxCell id="L9xH7E7Yp6ftNxaXyzUH-14" value="" style="endArrow=classic;html=1;rounded=0;endFill=1;" parent="1" edge="1">
          <mxGeometry width="50" height="50" relative="1" as="geometry">
            <mxPoint x="520" y="410" as="sourcePoint" />
            <mxPoint x="680" y="410" as="targetPoint" />
          </mxGeometry>
        </mxCell>
        <mxCell id="L9xH7E7Yp6ftNxaXyzUH-15" value="Write Command" style="text;html=1;align=right;verticalAlign=middle;whiteSpace=wrap;rounded=0;" parent="1" vertex="1">
          <mxGeometry x="420" y="399" width="100" height="20" as="geometry" />
        </mxCell>
        <mxCell id="L9xH7E7Yp6ftNxaXyzUH-16" value="" style="endArrow=none;html=1;rounded=0;endFill=0;startArrow=classic;startFill=1;" parent="1" edge="1">
          <mxGeometry width="50" height="50" relative="1" as="geometry">
            <mxPoint x="520" y="430" as="sourcePoint" />
            <mxPoint x="680" y="430" as="targetPoint" />
          </mxGeometry>
        </mxCell>
        <mxCell id="L9xH7E7Yp6ftNxaXyzUH-17" value="Write Response" style="text;html=1;align=right;verticalAlign=middle;whiteSpace=wrap;rounded=0;" parent="1" vertex="1">
          <mxGeometry x="420" y="419" width="100" height="20" as="geometry" />
        </mxCell>
        <mxCell id="L9xH7E7Yp6ftNxaXyzUH-18" value="Read Data" style="text;html=1;align=right;verticalAlign=middle;whiteSpace=wrap;rounded=0;" parent="1" vertex="1">
          <mxGeometry x="460" y="480" width="60" height="20" as="geometry" />
        </mxCell>
        <mxCell id="L9xH7E7Yp6ftNxaXyzUH-29" value="Read Logic" style="verticalAlign=middle;align=center;vsdxID=5;fillColor=#f8cecc;shape=stencil(nZBLDoAgDERP0z3SIyjew0SURgSD+Lu9kMZoXLhwN9O+tukAlrNpJg1SzDH4QW/URgNYgZTkjA4UkwJUgGXng+6DX1zLfmoymdXo17xh5zmRJ6Q42BWCfc2oJfdAr+Yv+AP9Cb7OJ3H/2JG1HNGz/84klThPVCc=);strokeColor=#b85450;labelBackgroundColor=none;rounded=0;html=1;whiteSpace=wrap;" parent="1" vertex="1">
          <mxGeometry x="680" y="470" width="80" height="91" as="geometry" />
        </mxCell>
        <mxCell id="L9xH7E7Yp6ftNxaXyzUH-32" value="" style="endArrow=classic;html=1;rounded=0;endFill=1;" parent="1" edge="1">
          <mxGeometry width="50" height="50" relative="1" as="geometry">
            <mxPoint x="520" y="521" as="sourcePoint" />
            <mxPoint x="680" y="521" as="targetPoint" />
          </mxGeometry>
        </mxCell>
        <mxCell id="L9xH7E7Yp6ftNxaXyzUH-33" value="Read Command" style="text;html=1;align=right;verticalAlign=middle;whiteSpace=wrap;rounded=0;" parent="1" vertex="1">
          <mxGeometry x="420" y="510" width="100" height="20" as="geometry" />
        </mxCell>
        <mxCell id="L9xH7E7Yp6ftNxaXyzUH-34" value="" style="endArrow=none;html=1;rounded=0;endFill=0;startArrow=classic;startFill=1;" parent="1" edge="1">
          <mxGeometry width="50" height="50" relative="1" as="geometry">
            <mxPoint x="520" y="541" as="sourcePoint" />
            <mxPoint x="680" y="541" as="targetPoint" />
          </mxGeometry>
        </mxCell>
        <mxCell id="L9xH7E7Yp6ftNxaXyzUH-35" value="Read Response" style="text;html=1;align=right;verticalAlign=middle;whiteSpace=wrap;rounded=0;" parent="1" vertex="1">
          <mxGeometry x="420" y="530" width="100" height="20" as="geometry" />
        </mxCell>
        <mxCell id="L9xH7E7Yp6ftNxaXyzUH-19" style="vsdxID=5;fillColor=none;gradientColor=none;strokeColor=none;labelBackgroundColor=none;rounded=0;html=1;whiteSpace=wrap;rotation=-180;" parent="1" vertex="1">
          <mxGeometry x="560" y="470" width="80" height="40" as="geometry" />
        </mxCell>
        <mxCell id="L9xH7E7Yp6ftNxaXyzUH-20" value="" style="verticalAlign=middle;align=center;vsdxID=6;fillColor=#f8cecc;shape=stencil(nZBLDoAgDERP0z3SIyjew0SURgSD+Lu9kMZoXLhwN9O+tukAlrNpJg1SzDH4QW/URgNYgZTkjA4UkwJUgGXng+6DX1zLfmoymdXo17xh5zmRJ6Q42BWCfc2oJfdAr+Yv+AP9Cb7OJ3H/2JG1HNGz/84klThPVCc=);strokeColor=#b85450;spacingTop=-3;spacingBottom=-3;spacingLeft=-3;spacingRight=-3;labelBackgroundColor=none;rounded=0;html=1;whiteSpace=wrap;rotation=-180;" parent="L9xH7E7Yp6ftNxaXyzUH-19" vertex="1">
          <mxGeometry width="60" height="40" as="geometry" />
        </mxCell>
        <mxCell id="L9xH7E7Yp6ftNxaXyzUH-21" style="vsdxID=8;fillColor=#FFFFFF;gradientColor=none;shape=stencil(UzV2Ls5ILEhVNTIoLinKz04tz0wpyVA1dlE1MsrMy0gtyiwBslSNXVWNndPyi1LTi/JL81Ig/IJEkEoQKze/DGRCBUSfAUiHkUElMs8NojAnMw9JoaEB2UphfKyK8SoFMhAOh/gZWQ7dk0AhSAAZuwIA);strokeColor=#000000;labelBackgroundColor=#ffffff;rounded=0;html=1;whiteSpace=wrap;rotation=-180;" parent="L9xH7E7Yp6ftNxaXyzUH-19" vertex="1">
          <mxGeometry x="20" y="10" width="24" height="20" as="geometry" />
        </mxCell>
        <mxCell id="L9xH7E7Yp6ftNxaXyzUH-22" style="vsdxID=7;edgeStyle=none;startArrow=none;endArrow=classic;startSize=5;endSize=5;strokeColor=#000000;spacingTop=0;spacingBottom=0;spacingLeft=0;spacingRight=0;verticalAlign=middle;html=1;labelBackgroundColor=#ffffff;rounded=0;" parent="L9xH7E7Yp6ftNxaXyzUH-19" edge="1">
          <mxGeometry relative="1" as="geometry">
            <mxPoint as="offset" />
            <Array as="points" />
            <mxPoint x="56" y="20" as="sourcePoint" />
            <mxPoint x="40" y="20" as="targetPoint" />
          </mxGeometry>
        </mxCell>
        <mxCell id="L9xH7E7Yp6ftNxaXyzUH-23" style="vsdxID=9;edgeStyle=none;startArrow=none;endArrow=none;startSize=5;endSize=5;strokeColor=#000000;spacingTop=0;spacingBottom=0;spacingLeft=0;spacingRight=0;verticalAlign=middle;html=1;labelBackgroundColor=#ffffff;rounded=0;" parent="L9xH7E7Yp6ftNxaXyzUH-19" edge="1">
          <mxGeometry relative="1" as="geometry">
            <Array as="points" />
            <mxPoint x="28" y="30" as="sourcePoint" />
            <mxPoint x="28" y="10" as="targetPoint" />
          </mxGeometry>
        </mxCell>
        <mxCell id="L9xH7E7Yp6ftNxaXyzUH-24" style="vsdxID=10;edgeStyle=none;startArrow=none;endArrow=none;startSize=5;endSize=5;strokeColor=#000000;spacingTop=0;spacingBottom=0;spacingLeft=0;spacingRight=0;verticalAlign=middle;html=1;labelBackgroundColor=#ffffff;rounded=0;" parent="L9xH7E7Yp6ftNxaXyzUH-19" edge="1">
          <mxGeometry relative="1" as="geometry">
            <Array as="points" />
            <mxPoint x="36" y="30" as="sourcePoint" />
            <mxPoint x="36" y="10" as="targetPoint" />
          </mxGeometry>
        </mxCell>
        <mxCell id="L9xH7E7Yp6ftNxaXyzUH-25" style="vsdxID=11;edgeStyle=none;startArrow=none;endArrow=classic;startSize=5;endSize=5;strokeColor=#000000;spacingTop=0;spacingBottom=0;spacingLeft=0;spacingRight=0;verticalAlign=middle;html=1;labelBackgroundColor=#ffffff;rounded=0;" parent="L9xH7E7Yp6ftNxaXyzUH-19" edge="1">
          <mxGeometry relative="1" as="geometry">
            <mxPoint as="offset" />
            <Array as="points" />
            <mxPoint x="20" y="20" as="sourcePoint" />
            <mxPoint x="4" y="20" as="targetPoint" />
          </mxGeometry>
        </mxCell>
        <mxCell id="L9xH7E7Yp6ftNxaXyzUH-26" style="vsdxID=12;edgeStyle=none;startArrow=none;endArrow=none;startSize=5;endSize=5;strokeColor=#000000;spacingTop=0;spacingBottom=0;spacingLeft=0;spacingRight=0;verticalAlign=middle;html=1;labelBackgroundColor=#ffffff;rounded=0;" parent="L9xH7E7Yp6ftNxaXyzUH-19" edge="1">
          <mxGeometry relative="1" as="geometry">
            <Array as="points" />
            <mxPoint x="24" y="30" as="sourcePoint" />
            <mxPoint x="24" y="10" as="targetPoint" />
          </mxGeometry>
        </mxCell>
        <mxCell id="L9xH7E7Yp6ftNxaXyzUH-27" style="vsdxID=13;edgeStyle=none;startArrow=none;endArrow=none;startSize=5;endSize=5;strokeColor=#000000;spacingTop=0;spacingBottom=0;spacingLeft=0;spacingRight=0;verticalAlign=middle;html=1;labelBackgroundColor=#ffffff;rounded=0;" parent="L9xH7E7Yp6ftNxaXyzUH-19" edge="1">
          <mxGeometry relative="1" as="geometry">
            <Array as="points" />
            <mxPoint x="32" y="30" as="sourcePoint" />
            <mxPoint x="32" y="10" as="targetPoint" />
          </mxGeometry>
        </mxCell>
        <mxCell id="L9xH7E7Yp6ftNxaXyzUH-28" style="vsdxID=14;edgeStyle=none;startArrow=none;endArrow=classic;startSize=5;endSize=5;strokeColor=#000000;spacingTop=0;spacingBottom=0;spacingLeft=0;spacingRight=0;verticalAlign=middle;html=1;labelBackgroundColor=#ffffff;rounded=0;" parent="L9xH7E7Yp6ftNxaXyzUH-19" edge="1">
          <mxGeometry relative="1" as="geometry">
            <mxPoint as="offset" />
            <Array as="points" />
            <mxPoint x="80" y="20" as="sourcePoint" />
            <mxPoint x="60" y="20" as="targetPoint" />
          </mxGeometry>
        </mxCell>
        <mxCell id="L9xH7E7Yp6ftNxaXyzUH-30" value="" style="endArrow=classic;html=1;rounded=0;endFill=1;" parent="1" edge="1">
          <mxGeometry width="50" height="50" relative="1" as="geometry">
            <mxPoint x="560" y="490" as="sourcePoint" />
            <mxPoint x="520" y="490" as="targetPoint" />
          </mxGeometry>
        </mxCell>
        <mxCell id="L9xH7E7Yp6ftNxaXyzUH-31" value="" style="endArrow=none;html=1;rounded=0;" parent="1" edge="1">
          <mxGeometry width="50" height="50" relative="1" as="geometry">
            <mxPoint x="680" y="490" as="sourcePoint" />
            <mxPoint x="640" y="490" as="targetPoint" />
          </mxGeometry>
        </mxCell>
        <mxCell id="L9xH7E7Yp6ftNxaXyzUH-38" value="" style="endArrow=classic;html=1;rounded=0;" parent="1" edge="1">
          <mxGeometry width="50" height="50" relative="1" as="geometry">
            <mxPoint x="780" y="400" as="sourcePoint" />
            <mxPoint x="760" y="400" as="targetPoint" />
          </mxGeometry>
        </mxCell>
        <mxCell id="L9xH7E7Yp6ftNxaXyzUH-39" value="" style="endArrow=classic;html=1;rounded=0;" parent="1" edge="1">
          <mxGeometry width="50" height="50" relative="1" as="geometry">
            <mxPoint x="780" y="519.86" as="sourcePoint" />
            <mxPoint x="760" y="519.86" as="targetPoint" />
          </mxGeometry>
        </mxCell>
        <mxCell id="L9xH7E7Yp6ftNxaXyzUH-40" value="" style="endArrow=none;html=1;rounded=0;" parent="1" edge="1">
          <mxGeometry width="50" height="50" relative="1" as="geometry">
            <mxPoint x="780" y="520" as="sourcePoint" />
            <mxPoint x="780" y="400" as="targetPoint" />
          </mxGeometry>
        </mxCell>
        <mxCell id="L9xH7E7Yp6ftNxaXyzUH-41" value="" style="endArrow=classic;html=1;rounded=0;" parent="1" edge="1">
          <mxGeometry width="50" height="50" relative="1" as="geometry">
            <mxPoint x="780" y="460" as="sourcePoint" />
            <mxPoint x="820" y="460" as="targetPoint" />
          </mxGeometry>
        </mxCell>
        <mxCell id="L9xH7E7Yp6ftNxaXyzUH-42" value="AXI4" style="text;html=1;align=left;verticalAlign=middle;whiteSpace=wrap;rounded=0;" parent="1" vertex="1">
          <mxGeometry x="820" y="450" width="40" height="20" as="geometry" />
        </mxCell>
      </root>
    </mxGraphModel>
  </diagram>
  <diagram id="Uqb6hNkKv5QxDM3JXtOU" name="olo_axi_master_full">
    <mxGraphModel dx="787" dy="482" grid="1" gridSize="10" guides="1" tooltips="1" connect="1" arrows="1" fold="1" page="1" pageScale="1" pageWidth="10000" pageHeight="10000" math="0" shadow="0">
      <root>
        <mxCell id="0" />
        <mxCell id="1" parent="0" />
        <mxCell id="Fzajw_0pLW_z-vHolls9-1" value="" style="rounded=1;whiteSpace=wrap;html=1;fillColor=#f5f5f5;fontColor=#333333;strokeColor=#666666;arcSize=10;" vertex="1" parent="1">
          <mxGeometry x="820" y="338.5" width="200" height="241" as="geometry" />
        </mxCell>
        <mxCell id="Fzajw_0pLW_z-vHolls9-2" value="olo_axi_master_simple" style="text;html=1;align=left;verticalAlign=middle;whiteSpace=wrap;rounded=0;" vertex="1" parent="1">
          <mxGeometry x="520" y="200" width="60" height="20" as="geometry" />
        </mxCell>
        <mxCell id="Fzajw_0pLW_z-vHolls9-3" value="Write Data" style="text;html=1;align=right;verticalAlign=middle;whiteSpace=wrap;rounded=0;" vertex="1" parent="1">
          <mxGeometry x="740" y="368.5" width="60" height="20" as="geometry" />
        </mxCell>
        <mxCell id="Fzajw_0pLW_z-vHolls9-18" value="Write Command" style="text;html=1;align=right;verticalAlign=middle;whiteSpace=wrap;rounded=0;" vertex="1" parent="1">
          <mxGeometry x="700" y="398.5" width="100" height="20" as="geometry" />
        </mxCell>
        <mxCell id="Fzajw_0pLW_z-vHolls9-20" value="Write Response" style="text;html=1;align=right;verticalAlign=middle;whiteSpace=wrap;rounded=0;" vertex="1" parent="1">
          <mxGeometry x="700" y="418.5" width="100" height="20" as="geometry" />
        </mxCell>
        <mxCell id="Fzajw_0pLW_z-vHolls9-21" value="Read Data" style="text;html=1;align=right;verticalAlign=middle;whiteSpace=wrap;rounded=0;" vertex="1" parent="1">
          <mxGeometry x="740" y="479.5" width="60" height="20" as="geometry" />
        </mxCell>
        <mxCell id="Fzajw_0pLW_z-vHolls9-24" value="Read Command" style="text;html=1;align=right;verticalAlign=middle;whiteSpace=wrap;rounded=0;" vertex="1" parent="1">
          <mxGeometry x="700" y="509.5" width="100" height="20" as="geometry" />
        </mxCell>
        <mxCell id="Fzajw_0pLW_z-vHolls9-26" value="Read Response" style="text;html=1;align=right;verticalAlign=middle;whiteSpace=wrap;rounded=0;" vertex="1" parent="1">
          <mxGeometry x="700" y="529.5" width="100" height="20" as="geometry" />
        </mxCell>
        <mxCell id="Fzajw_0pLW_z-vHolls9-44" value="olo_axi_master_simple" style="rounded=1;whiteSpace=wrap;html=1;fillColor=#fff2cc;strokeColor=#d6b656;rotation=90;" vertex="1" parent="1">
          <mxGeometry x="880" y="439" width="200" height="40" as="geometry" />
        </mxCell>
        <mxCell id="Fzajw_0pLW_z-vHolls9-45" value="" style="endArrow=classic;startArrow=classic;html=1;rounded=0;" edge="1" parent="1">
          <mxGeometry width="50" height="50" relative="1" as="geometry">
            <mxPoint x="1000" y="460" as="sourcePoint" />
            <mxPoint x="1050" y="460" as="targetPoint" />
          </mxGeometry>
        </mxCell>
        <mxCell id="Fzajw_0pLW_z-vHolls9-46" value="Write Logic&lt;div&gt;(alignment &amp;amp; width conv.)&lt;/div&gt;" style="verticalAlign=middle;align=center;vsdxID=5;fillColor=#e1eaff;gradientColor=none;shape=stencil(nZBLDoAgDERP0z3SIyjew0SURgSD+Lu9kMZoXLhwN9O+tukAlrNpJg1SzDH4QW/URgNYgZTkjA4UkwJUgGXng+6DX1zLfmoymdXo17xh5zmRJ6Q42BWCfc2oJfdAr+Yv+AP9Cb7OJ3H/2JG1HNGz/84klThPVCc=);strokeColor=#000000;labelBackgroundColor=none;rounded=0;html=1;whiteSpace=wrap;" vertex="1" parent="1">
          <mxGeometry x="840" y="359" width="80" height="91" as="geometry" />
        </mxCell>
        <mxCell id="Fzajw_0pLW_z-vHolls9-47" value="Read Logic&lt;div&gt;(alignment &amp;amp; width conv.)&lt;/div&gt;" style="verticalAlign=middle;align=center;vsdxID=5;fillColor=#f8cecc;shape=stencil(nZBLDoAgDERP0z3SIyjew0SURgSD+Lu9kMZoXLhwN9O+tukAlrNpJg1SzDH4QW/URgNYgZTkjA4UkwJUgGXng+6DX1zLfmoymdXo17xh5zmRJ6Q42BWCfc2oJfdAr+Yv+AP9Cb7OJ3H/2JG1HNGz/84klThPVCc=);strokeColor=#b85450;labelBackgroundColor=none;rounded=0;html=1;whiteSpace=wrap;" vertex="1" parent="1">
          <mxGeometry x="840" y="470" width="80" height="91" as="geometry" />
        </mxCell>
        <mxCell id="Fzajw_0pLW_z-vHolls9-48" value="" style="endArrow=classic;html=1;rounded=0;endFill=1;" edge="1" parent="1">
          <mxGeometry width="50" height="50" relative="1" as="geometry">
            <mxPoint x="800" y="378" as="sourcePoint" />
            <mxPoint x="840" y="378.16" as="targetPoint" />
          </mxGeometry>
        </mxCell>
        <mxCell id="Fzajw_0pLW_z-vHolls9-50" value="" style="endArrow=classic;html=1;rounded=0;endFill=1;" edge="1" parent="1">
          <mxGeometry width="50" height="50" relative="1" as="geometry">
            <mxPoint x="920" y="378" as="sourcePoint" />
            <mxPoint x="960" y="378.16" as="targetPoint" />
          </mxGeometry>
        </mxCell>
        <mxCell id="Fzajw_0pLW_z-vHolls9-51" value="" style="endArrow=classic;html=1;rounded=0;endFill=1;" edge="1" parent="1">
          <mxGeometry width="50" height="50" relative="1" as="geometry">
            <mxPoint x="920" y="408.16" as="sourcePoint" />
            <mxPoint x="960" y="408.32000000000005" as="targetPoint" />
          </mxGeometry>
        </mxCell>
        <mxCell id="Fzajw_0pLW_z-vHolls9-52" value="" style="endArrow=classic;html=1;rounded=0;endFill=1;" edge="1" parent="1">
          <mxGeometry width="50" height="50" relative="1" as="geometry">
            <mxPoint x="920" y="519.26" as="sourcePoint" />
            <mxPoint x="960" y="519.4200000000001" as="targetPoint" />
          </mxGeometry>
        </mxCell>
        <mxCell id="Fzajw_0pLW_z-vHolls9-53" value="" style="endArrow=none;html=1;rounded=0;endFill=0;startArrow=classic;startFill=1;" edge="1" parent="1">
          <mxGeometry width="50" height="50" relative="1" as="geometry">
            <mxPoint x="800" y="428.4" as="sourcePoint" />
            <mxPoint x="840" y="428.4" as="targetPoint" />
            <Array as="points" />
          </mxGeometry>
        </mxCell>
        <mxCell id="Fzajw_0pLW_z-vHolls9-54" value="" style="endArrow=none;html=1;rounded=0;endFill=0;startArrow=classic;startFill=1;" edge="1" parent="1">
          <mxGeometry width="50" height="50" relative="1" as="geometry">
            <mxPoint x="920" y="489.26" as="sourcePoint" />
            <mxPoint x="960" y="489.26" as="targetPoint" />
          </mxGeometry>
        </mxCell>
        <mxCell id="Fzajw_0pLW_z-vHolls9-55" value="" style="endArrow=none;html=1;rounded=0;endFill=0;startArrow=classic;startFill=1;" edge="1" parent="1">
          <mxGeometry width="50" height="50" relative="1" as="geometry">
            <mxPoint x="920" y="428.26" as="sourcePoint" />
            <mxPoint x="960" y="428.26" as="targetPoint" />
          </mxGeometry>
        </mxCell>
        <mxCell id="Fzajw_0pLW_z-vHolls9-56" value="" style="endArrow=none;html=1;rounded=0;endFill=0;startArrow=classic;startFill=1;" edge="1" parent="1">
          <mxGeometry width="50" height="50" relative="1" as="geometry">
            <mxPoint x="920" y="539.26" as="sourcePoint" />
            <mxPoint x="960" y="539.26" as="targetPoint" />
          </mxGeometry>
        </mxCell>
        <mxCell id="Fzajw_0pLW_z-vHolls9-57" value="" style="endArrow=classic;html=1;rounded=0;endFill=1;" edge="1" parent="1">
          <mxGeometry width="50" height="50" relative="1" as="geometry">
            <mxPoint x="800" y="408.4" as="sourcePoint" />
            <mxPoint x="840" y="408.56" as="targetPoint" />
          </mxGeometry>
        </mxCell>
        <mxCell id="Fzajw_0pLW_z-vHolls9-58" value="" style="endArrow=none;html=1;rounded=0;endFill=0;startArrow=classic;startFill=1;" edge="1" parent="1">
          <mxGeometry width="50" height="50" relative="1" as="geometry">
            <mxPoint x="800" y="489.4" as="sourcePoint" />
            <mxPoint x="840" y="489.4" as="targetPoint" />
            <Array as="points" />
          </mxGeometry>
        </mxCell>
        <mxCell id="Fzajw_0pLW_z-vHolls9-59" value="" style="endArrow=none;html=1;rounded=0;endFill=0;startArrow=classic;startFill=1;" edge="1" parent="1">
          <mxGeometry width="50" height="50" relative="1" as="geometry">
            <mxPoint x="800" y="539.4" as="sourcePoint" />
            <mxPoint x="840" y="539.4" as="targetPoint" />
            <Array as="points" />
          </mxGeometry>
        </mxCell>
        <mxCell id="Fzajw_0pLW_z-vHolls9-60" value="" style="endArrow=classic;html=1;rounded=0;endFill=1;" edge="1" parent="1">
          <mxGeometry width="50" height="50" relative="1" as="geometry">
            <mxPoint x="800" y="519.4" as="sourcePoint" />
            <mxPoint x="840" y="519.56" as="targetPoint" />
          </mxGeometry>
        </mxCell>
        <mxCell id="Fzajw_0pLW_z-vHolls9-61" value="AXI4" style="text;html=1;align=left;verticalAlign=middle;whiteSpace=wrap;rounded=0;" vertex="1" parent="1">
          <mxGeometry x="1050" y="449" width="60" height="20" as="geometry" />
        </mxCell>
        <mxCell id="VO9drjuvMobAsGLRe6Zn-1" value="olo_axi_master_full" style="text;html=1;align=left;verticalAlign=middle;whiteSpace=wrap;rounded=0;" vertex="1" parent="1">
          <mxGeometry x="840" y="318.5" width="60" height="20" as="geometry" />
        </mxCell>
      </root>
    </mxGraphModel>
  </diagram>
  <diagram id="aC0ewpzSiQKtb1exWaOL" name="fsm_overview">
    <mxGraphModel dx="2072" dy="1219" grid="1" gridSize="10" guides="1" tooltips="1" connect="1" arrows="1" fold="1" page="1" pageScale="1" pageWidth="850" pageHeight="1100" math="0" shadow="0">
      <root>
        <mxCell id="0" />
        <mxCell id="1" parent="0" />
        <mxCell id="TQxonoG_CcpRqNHflivV-1" value="WriteTfGen FSM" style="rounded=1;whiteSpace=wrap;html=1;fillColor=#fff2cc;strokeColor=#d6b656;" vertex="1" parent="1">
          <mxGeometry x="120" y="80" width="120" height="40" as="geometry" />
        </mxCell>
        <mxCell id="TQxonoG_CcpRqNHflivV-2" value="AW FSM" style="rounded=1;whiteSpace=wrap;html=1;fillColor=#fff2cc;strokeColor=#d6b656;" vertex="1" parent="1">
          <mxGeometry x="365" y="80" width="120" height="40" as="geometry" />
        </mxCell>
        <mxCell id="TQxonoG_CcpRqNHflivV-3" value="W FSM" style="rounded=1;whiteSpace=wrap;html=1;fillColor=#fff2cc;strokeColor=#d6b656;" vertex="1" parent="1">
          <mxGeometry x="230" y="220" width="120" height="40" as="geometry" />
        </mxCell>
        <mxCell id="TQxonoG_CcpRqNHflivV-4" value="ReadTfGen FSM" style="rounded=1;whiteSpace=wrap;html=1;fillColor=#fff2cc;strokeColor=#d6b656;" vertex="1" parent="1">
          <mxGeometry x="150" y="660" width="120" height="60" as="geometry" />
        </mxCell>
        <mxCell id="TQxonoG_CcpRqNHflivV-5" value="AR FSM" style="rounded=1;whiteSpace=wrap;html=1;fillColor=#fff2cc;strokeColor=#d6b656;" vertex="1" parent="1">
          <mxGeometry x="340" y="660" width="120" height="60" as="geometry" />
        </mxCell>
        <mxCell id="a1WiUTe3sYi8W62VwQdR-1" style="vsdxID=5;fillColor=none;gradientColor=none;strokeColor=none;labelBackgroundColor=none;rounded=0;html=1;whiteSpace=wrap;rotation=90;" vertex="1" parent="1">
          <mxGeometry x="250" y="140" width="80" height="40" as="geometry" />
        </mxCell>
        <mxCell id="a1WiUTe3sYi8W62VwQdR-2" value="" style="verticalAlign=middle;align=center;vsdxID=6;fillColor=#dae8fc;shape=stencil(nZBLDoAgDERP0z3SIyjew0SURgSD+Lu9kMZoXLhwN9O+tukAlrNpJg1SzDH4QW/URgNYgZTkjA4UkwJUgGXng+6DX1zLfmoymdXo17xh5zmRJ6Q42BWCfc2oJfdAr+Yv+AP9Cb7OJ3H/2JG1HNGz/84klThPVCc=);strokeColor=#6c8ebf;spacingTop=-3;spacingBottom=-3;spacingLeft=-3;spacingRight=-3;labelBackgroundColor=none;rounded=0;html=1;whiteSpace=wrap;rotation=90;" vertex="1" parent="a1WiUTe3sYi8W62VwQdR-1">
          <mxGeometry x="10" y="10" width="60" height="40" as="geometry" />
        </mxCell>
        <mxCell id="a1WiUTe3sYi8W62VwQdR-3" style="vsdxID=8;fillColor=#FFFFFF;gradientColor=none;shape=stencil(UzV2Ls5ILEhVNTIoLinKz04tz0wpyVA1dlE1MsrMy0gtyiwBslSNXVWNndPyi1LTi/JL81Ig/IJEkEoQKze/DGRCBUSfAUiHkUElMs8NojAnMw9JoaEB2UphfKyK8SoFMhAOh/gZWQ7dk0AhSAAZuwIA);strokeColor=#000000;labelBackgroundColor=#ffffff;rounded=0;html=1;whiteSpace=wrap;rotation=90;" vertex="1" parent="a1WiUTe3sYi8W62VwQdR-1">
          <mxGeometry x="28" y="18" width="24" height="20" as="geometry" />
        </mxCell>
        <mxCell id="a1WiUTe3sYi8W62VwQdR-4" style="vsdxID=7;edgeStyle=none;startArrow=none;endArrow=classic;startSize=5;endSize=5;strokeColor=#000000;spacingTop=0;spacingBottom=0;spacingLeft=0;spacingRight=0;verticalAlign=middle;html=1;labelBackgroundColor=#ffffff;rounded=0;" edge="1" parent="a1WiUTe3sYi8W62VwQdR-1">
          <mxGeometry relative="1" as="geometry">
            <mxPoint as="offset" />
            <Array as="points" />
            <mxPoint x="40" y="4" as="sourcePoint" />
            <mxPoint x="40" y="20" as="targetPoint" />
          </mxGeometry>
        </mxCell>
        <mxCell id="a1WiUTe3sYi8W62VwQdR-5" style="vsdxID=9;edgeStyle=none;startArrow=none;endArrow=none;startSize=5;endSize=5;strokeColor=#000000;spacingTop=0;spacingBottom=0;spacingLeft=0;spacingRight=0;verticalAlign=middle;html=1;labelBackgroundColor=#ffffff;rounded=0;" edge="1" parent="a1WiUTe3sYi8W62VwQdR-1">
          <mxGeometry relative="1" as="geometry">
            <Array as="points" />
            <mxPoint x="50" y="32" as="sourcePoint" />
            <mxPoint x="30" y="32" as="targetPoint" />
          </mxGeometry>
        </mxCell>
        <mxCell id="a1WiUTe3sYi8W62VwQdR-6" style="vsdxID=10;edgeStyle=none;startArrow=none;endArrow=none;startSize=5;endSize=5;strokeColor=#000000;spacingTop=0;spacingBottom=0;spacingLeft=0;spacingRight=0;verticalAlign=middle;html=1;labelBackgroundColor=#ffffff;rounded=0;" edge="1" parent="a1WiUTe3sYi8W62VwQdR-1">
          <mxGeometry relative="1" as="geometry">
            <Array as="points" />
            <mxPoint x="50" y="24" as="sourcePoint" />
            <mxPoint x="30" y="24" as="targetPoint" />
          </mxGeometry>
        </mxCell>
        <mxCell id="a1WiUTe3sYi8W62VwQdR-7" style="vsdxID=11;edgeStyle=none;startArrow=none;endArrow=classic;startSize=5;endSize=5;strokeColor=#000000;spacingTop=0;spacingBottom=0;spacingLeft=0;spacingRight=0;verticalAlign=middle;html=1;labelBackgroundColor=#ffffff;rounded=0;" edge="1" parent="a1WiUTe3sYi8W62VwQdR-1">
          <mxGeometry relative="1" as="geometry">
            <mxPoint as="offset" />
            <Array as="points" />
            <mxPoint x="40" y="40" as="sourcePoint" />
            <mxPoint x="40" y="56" as="targetPoint" />
          </mxGeometry>
        </mxCell>
        <mxCell id="a1WiUTe3sYi8W62VwQdR-8" style="vsdxID=12;edgeStyle=none;startArrow=none;endArrow=none;startSize=5;endSize=5;strokeColor=#000000;spacingTop=0;spacingBottom=0;spacingLeft=0;spacingRight=0;verticalAlign=middle;html=1;labelBackgroundColor=#ffffff;rounded=0;" edge="1" parent="a1WiUTe3sYi8W62VwQdR-1">
          <mxGeometry relative="1" as="geometry">
            <Array as="points" />
            <mxPoint x="50" y="36" as="sourcePoint" />
            <mxPoint x="30" y="36" as="targetPoint" />
          </mxGeometry>
        </mxCell>
        <mxCell id="a1WiUTe3sYi8W62VwQdR-9" style="vsdxID=13;edgeStyle=none;startArrow=none;endArrow=none;startSize=5;endSize=5;strokeColor=#000000;spacingTop=0;spacingBottom=0;spacingLeft=0;spacingRight=0;verticalAlign=middle;html=1;labelBackgroundColor=#ffffff;rounded=0;" edge="1" parent="a1WiUTe3sYi8W62VwQdR-1">
          <mxGeometry relative="1" as="geometry">
            <Array as="points" />
            <mxPoint x="50" y="28" as="sourcePoint" />
            <mxPoint x="30" y="28" as="targetPoint" />
          </mxGeometry>
        </mxCell>
        <mxCell id="a1WiUTe3sYi8W62VwQdR-10" style="vsdxID=14;edgeStyle=none;startArrow=none;endArrow=classic;startSize=5;endSize=5;strokeColor=#000000;spacingTop=0;spacingBottom=0;spacingLeft=0;spacingRight=0;verticalAlign=middle;html=1;labelBackgroundColor=#ffffff;rounded=0;" edge="1" parent="a1WiUTe3sYi8W62VwQdR-1">
          <mxGeometry relative="1" as="geometry">
            <mxPoint as="offset" />
            <Array as="points" />
            <mxPoint x="40" y="-20" as="sourcePoint" />
            <mxPoint x="40" as="targetPoint" />
          </mxGeometry>
        </mxCell>
        <mxCell id="nCCayTrm1Lx8QwOALpIn-66" value="" style="endArrow=classic;html=1;rounded=0;entryX=0.5;entryY=0;entryDx=0;entryDy=0;" edge="1" parent="a1WiUTe3sYi8W62VwQdR-1" target="TQxonoG_CcpRqNHflivV-3">
          <mxGeometry width="50" height="50" relative="1" as="geometry">
            <mxPoint x="40" y="60" as="sourcePoint" />
            <mxPoint x="90" y="10" as="targetPoint" />
          </mxGeometry>
        </mxCell>
        <mxCell id="a1WiUTe3sYi8W62VwQdR-11" value="" style="endArrow=classic;html=1;rounded=0;entryX=0;entryY=0.5;entryDx=0;entryDy=0;" edge="1" parent="1" target="TQxonoG_CcpRqNHflivV-2">
          <mxGeometry width="50" height="50" relative="1" as="geometry">
            <mxPoint x="240" y="100" as="sourcePoint" />
            <mxPoint x="290" y="50" as="targetPoint" />
          </mxGeometry>
        </mxCell>
        <mxCell id="a1WiUTe3sYi8W62VwQdR-13" value="wr_trans FIFO" style="text;html=1;align=center;verticalAlign=middle;whiteSpace=wrap;rounded=0;" vertex="1" parent="1">
          <mxGeometry x="310" y="150" width="60" height="30" as="geometry" />
        </mxCell>
        <mxCell id="a1WiUTe3sYi8W62VwQdR-17" value="WResp Handling" style="rounded=1;whiteSpace=wrap;html=1;fillColor=#fff2cc;strokeColor=#d6b656;" vertex="1" parent="1">
          <mxGeometry x="230" y="358" width="120" height="60" as="geometry" />
        </mxCell>
        <mxCell id="a1WiUTe3sYi8W62VwQdR-18" value="" style="endArrow=classic;html=1;rounded=0;" edge="1" parent="1">
          <mxGeometry width="50" height="50" relative="1" as="geometry">
            <mxPoint x="270" y="689.8" as="sourcePoint" />
            <mxPoint x="340" y="690" as="targetPoint" />
          </mxGeometry>
        </mxCell>
        <mxCell id="nCCayTrm1Lx8QwOALpIn-1" style="vsdxID=5;fillColor=none;gradientColor=none;strokeColor=none;labelBackgroundColor=none;rounded=0;html=1;whiteSpace=wrap;" vertex="1" parent="1">
          <mxGeometry x="430" y="292" width="80" height="40" as="geometry" />
        </mxCell>
        <mxCell id="nCCayTrm1Lx8QwOALpIn-2" value="" style="verticalAlign=middle;align=center;vsdxID=6;fillColor=#dae8fc;shape=stencil(nZBLDoAgDERP0z3SIyjew0SURgSD+Lu9kMZoXLhwN9O+tukAlrNpJg1SzDH4QW/URgNYgZTkjA4UkwJUgGXng+6DX1zLfmoymdXo17xh5zmRJ6Q42BWCfc2oJfdAr+Yv+AP9Cb7OJ3H/2JG1HNGz/84klThPVCc=);strokeColor=#6c8ebf;spacingTop=-3;spacingBottom=-3;spacingLeft=-3;spacingRight=-3;labelBackgroundColor=none;rounded=0;html=1;whiteSpace=wrap;" vertex="1" parent="nCCayTrm1Lx8QwOALpIn-1">
          <mxGeometry x="20" width="60" height="40" as="geometry" />
        </mxCell>
        <mxCell id="nCCayTrm1Lx8QwOALpIn-3" style="vsdxID=8;fillColor=#FFFFFF;gradientColor=none;shape=stencil(UzV2Ls5ILEhVNTIoLinKz04tz0wpyVA1dlE1MsrMy0gtyiwBslSNXVWNndPyi1LTi/JL81Ig/IJEkEoQKze/DGRCBUSfAUiHkUElMs8NojAnMw9JoaEB2UphfKyK8SoFMhAOh/gZWQ7dk0AhSAAZuwIA);strokeColor=#000000;labelBackgroundColor=#ffffff;rounded=0;html=1;whiteSpace=wrap;" vertex="1" parent="nCCayTrm1Lx8QwOALpIn-1">
          <mxGeometry x="36" y="10" width="24" height="20" as="geometry" />
        </mxCell>
        <mxCell id="nCCayTrm1Lx8QwOALpIn-4" style="vsdxID=7;edgeStyle=none;startArrow=none;endArrow=classic;startSize=5;endSize=5;strokeColor=#000000;spacingTop=0;spacingBottom=0;spacingLeft=0;spacingRight=0;verticalAlign=middle;html=1;labelBackgroundColor=#ffffff;rounded=0;" edge="1" parent="nCCayTrm1Lx8QwOALpIn-1">
          <mxGeometry relative="1" as="geometry">
            <mxPoint as="offset" />
            <Array as="points" />
            <mxPoint x="24" y="20" as="sourcePoint" />
            <mxPoint x="40" y="20" as="targetPoint" />
          </mxGeometry>
        </mxCell>
        <mxCell id="nCCayTrm1Lx8QwOALpIn-5" style="vsdxID=9;edgeStyle=none;startArrow=none;endArrow=none;startSize=5;endSize=5;strokeColor=#000000;spacingTop=0;spacingBottom=0;spacingLeft=0;spacingRight=0;verticalAlign=middle;html=1;labelBackgroundColor=#ffffff;rounded=0;" edge="1" parent="nCCayTrm1Lx8QwOALpIn-1">
          <mxGeometry relative="1" as="geometry">
            <Array as="points" />
            <mxPoint x="52" y="10" as="sourcePoint" />
            <mxPoint x="52" y="30" as="targetPoint" />
          </mxGeometry>
        </mxCell>
        <mxCell id="nCCayTrm1Lx8QwOALpIn-6" style="vsdxID=10;edgeStyle=none;startArrow=none;endArrow=none;startSize=5;endSize=5;strokeColor=#000000;spacingTop=0;spacingBottom=0;spacingLeft=0;spacingRight=0;verticalAlign=middle;html=1;labelBackgroundColor=#ffffff;rounded=0;" edge="1" parent="nCCayTrm1Lx8QwOALpIn-1">
          <mxGeometry relative="1" as="geometry">
            <Array as="points" />
            <mxPoint x="44" y="10" as="sourcePoint" />
            <mxPoint x="44" y="30" as="targetPoint" />
          </mxGeometry>
        </mxCell>
        <mxCell id="nCCayTrm1Lx8QwOALpIn-7" style="vsdxID=11;edgeStyle=none;startArrow=none;endArrow=classic;startSize=5;endSize=5;strokeColor=#000000;spacingTop=0;spacingBottom=0;spacingLeft=0;spacingRight=0;verticalAlign=middle;html=1;labelBackgroundColor=#ffffff;rounded=0;" edge="1" parent="nCCayTrm1Lx8QwOALpIn-1">
          <mxGeometry relative="1" as="geometry">
            <mxPoint as="offset" />
            <Array as="points" />
            <mxPoint x="60" y="20" as="sourcePoint" />
            <mxPoint x="76" y="20" as="targetPoint" />
          </mxGeometry>
        </mxCell>
        <mxCell id="nCCayTrm1Lx8QwOALpIn-8" style="vsdxID=12;edgeStyle=none;startArrow=none;endArrow=none;startSize=5;endSize=5;strokeColor=#000000;spacingTop=0;spacingBottom=0;spacingLeft=0;spacingRight=0;verticalAlign=middle;html=1;labelBackgroundColor=#ffffff;rounded=0;" edge="1" parent="nCCayTrm1Lx8QwOALpIn-1">
          <mxGeometry relative="1" as="geometry">
            <Array as="points" />
            <mxPoint x="56" y="10" as="sourcePoint" />
            <mxPoint x="56" y="30" as="targetPoint" />
          </mxGeometry>
        </mxCell>
        <mxCell id="nCCayTrm1Lx8QwOALpIn-9" style="vsdxID=13;edgeStyle=none;startArrow=none;endArrow=none;startSize=5;endSize=5;strokeColor=#000000;spacingTop=0;spacingBottom=0;spacingLeft=0;spacingRight=0;verticalAlign=middle;html=1;labelBackgroundColor=#ffffff;rounded=0;" edge="1" parent="nCCayTrm1Lx8QwOALpIn-1">
          <mxGeometry relative="1" as="geometry">
            <Array as="points" />
            <mxPoint x="48" y="10" as="sourcePoint" />
            <mxPoint x="48" y="30" as="targetPoint" />
          </mxGeometry>
        </mxCell>
        <mxCell id="nCCayTrm1Lx8QwOALpIn-10" style="vsdxID=14;edgeStyle=none;startArrow=none;endArrow=classic;startSize=5;endSize=5;strokeColor=#000000;spacingTop=0;spacingBottom=0;spacingLeft=0;spacingRight=0;verticalAlign=middle;html=1;labelBackgroundColor=#ffffff;rounded=0;" edge="1" parent="nCCayTrm1Lx8QwOALpIn-1">
          <mxGeometry relative="1" as="geometry">
            <mxPoint as="offset" />
            <Array as="points" />
            <mxPoint y="20" as="sourcePoint" />
            <mxPoint x="20" y="20" as="targetPoint" />
          </mxGeometry>
        </mxCell>
        <mxCell id="nCCayTrm1Lx8QwOALpIn-11" value="wr_data FIFO" style="text;html=1;align=center;verticalAlign=middle;whiteSpace=wrap;rounded=0;" vertex="1" parent="1">
          <mxGeometry x="450" y="260" width="60" height="30" as="geometry" />
        </mxCell>
        <mxCell id="nCCayTrm1Lx8QwOALpIn-12" value="Data" style="text;html=1;align=center;verticalAlign=middle;whiteSpace=wrap;rounded=0;fontStyle=2" vertex="1" parent="1">
          <mxGeometry x="450" y="332" width="60" height="30" as="geometry" />
        </mxCell>
        <mxCell id="nCCayTrm1Lx8QwOALpIn-25" value="AW" style="ellipse;whiteSpace=wrap;html=1;fillColor=#d5e8d4;strokeColor=#82b366;" vertex="1" parent="1">
          <mxGeometry x="520" y="75" width="50" height="50" as="geometry" />
        </mxCell>
        <mxCell id="nCCayTrm1Lx8QwOALpIn-26" value="W" style="ellipse;whiteSpace=wrap;html=1;fillColor=#d5e8d4;strokeColor=#82b366;" vertex="1" parent="1">
          <mxGeometry x="540" y="287.5" width="50" height="45" as="geometry" />
        </mxCell>
        <mxCell id="nCCayTrm1Lx8QwOALpIn-27" value="B" style="ellipse;whiteSpace=wrap;html=1;fillColor=#d5e8d4;strokeColor=#82b366;" vertex="1" parent="1">
          <mxGeometry x="380" y="364" width="50" height="47" as="geometry" />
        </mxCell>
        <mxCell id="nCCayTrm1Lx8QwOALpIn-28" value="AR" style="ellipse;whiteSpace=wrap;html=1;fillColor=#d5e8d4;strokeColor=#82b366;" vertex="1" parent="1">
          <mxGeometry x="490" y="667" width="50" height="45" as="geometry" />
        </mxCell>
        <mxCell id="nCCayTrm1Lx8QwOALpIn-29" style="vsdxID=5;fillColor=none;gradientColor=none;strokeColor=none;labelBackgroundColor=none;rounded=0;html=1;whiteSpace=wrap;rotation=-180;" vertex="1" parent="1">
          <mxGeometry x="180" y="950" width="80" height="40" as="geometry" />
        </mxCell>
        <mxCell id="nCCayTrm1Lx8QwOALpIn-30" value="" style="verticalAlign=middle;align=center;vsdxID=6;fillColor=#dae8fc;shape=stencil(nZBLDoAgDERP0z3SIyjew0SURgSD+Lu9kMZoXLhwN9O+tukAlrNpJg1SzDH4QW/URgNYgZTkjA4UkwJUgGXng+6DX1zLfmoymdXo17xh5zmRJ6Q42BWCfc2oJfdAr+Yv+AP9Cb7OJ3H/2JG1HNGz/84klThPVCc=);strokeColor=#6c8ebf;spacingTop=-3;spacingBottom=-3;spacingLeft=-3;spacingRight=-3;labelBackgroundColor=none;rounded=0;html=1;whiteSpace=wrap;rotation=-180;" vertex="1" parent="nCCayTrm1Lx8QwOALpIn-29">
          <mxGeometry width="60" height="40" as="geometry" />
        </mxCell>
        <mxCell id="nCCayTrm1Lx8QwOALpIn-31" style="vsdxID=8;fillColor=#FFFFFF;gradientColor=none;shape=stencil(UzV2Ls5ILEhVNTIoLinKz04tz0wpyVA1dlE1MsrMy0gtyiwBslSNXVWNndPyi1LTi/JL81Ig/IJEkEoQKze/DGRCBUSfAUiHkUElMs8NojAnMw9JoaEB2UphfKyK8SoFMhAOh/gZWQ7dk0AhSAAZuwIA);strokeColor=#000000;labelBackgroundColor=#ffffff;rounded=0;html=1;whiteSpace=wrap;rotation=-180;" vertex="1" parent="nCCayTrm1Lx8QwOALpIn-29">
          <mxGeometry x="20" y="10" width="24" height="20" as="geometry" />
        </mxCell>
        <mxCell id="nCCayTrm1Lx8QwOALpIn-32" style="vsdxID=7;edgeStyle=none;startArrow=none;endArrow=classic;startSize=5;endSize=5;strokeColor=#000000;spacingTop=0;spacingBottom=0;spacingLeft=0;spacingRight=0;verticalAlign=middle;html=1;labelBackgroundColor=#ffffff;rounded=0;" edge="1" parent="nCCayTrm1Lx8QwOALpIn-29">
          <mxGeometry relative="1" as="geometry">
            <mxPoint as="offset" />
            <Array as="points" />
            <mxPoint x="56" y="20" as="sourcePoint" />
            <mxPoint x="40" y="20" as="targetPoint" />
          </mxGeometry>
        </mxCell>
        <mxCell id="nCCayTrm1Lx8QwOALpIn-33" style="vsdxID=9;edgeStyle=none;startArrow=none;endArrow=none;startSize=5;endSize=5;strokeColor=#000000;spacingTop=0;spacingBottom=0;spacingLeft=0;spacingRight=0;verticalAlign=middle;html=1;labelBackgroundColor=#ffffff;rounded=0;" edge="1" parent="nCCayTrm1Lx8QwOALpIn-29">
          <mxGeometry relative="1" as="geometry">
            <Array as="points" />
            <mxPoint x="28" y="30" as="sourcePoint" />
            <mxPoint x="28" y="10" as="targetPoint" />
          </mxGeometry>
        </mxCell>
        <mxCell id="nCCayTrm1Lx8QwOALpIn-34" style="vsdxID=10;edgeStyle=none;startArrow=none;endArrow=none;startSize=5;endSize=5;strokeColor=#000000;spacingTop=0;spacingBottom=0;spacingLeft=0;spacingRight=0;verticalAlign=middle;html=1;labelBackgroundColor=#ffffff;rounded=0;" edge="1" parent="nCCayTrm1Lx8QwOALpIn-29">
          <mxGeometry relative="1" as="geometry">
            <Array as="points" />
            <mxPoint x="36" y="30" as="sourcePoint" />
            <mxPoint x="36" y="10" as="targetPoint" />
          </mxGeometry>
        </mxCell>
        <mxCell id="nCCayTrm1Lx8QwOALpIn-35" style="vsdxID=11;edgeStyle=none;startArrow=none;endArrow=classic;startSize=5;endSize=5;strokeColor=#000000;spacingTop=0;spacingBottom=0;spacingLeft=0;spacingRight=0;verticalAlign=middle;html=1;labelBackgroundColor=#ffffff;rounded=0;" edge="1" parent="nCCayTrm1Lx8QwOALpIn-29">
          <mxGeometry relative="1" as="geometry">
            <mxPoint as="offset" />
            <Array as="points" />
            <mxPoint x="20" y="20" as="sourcePoint" />
            <mxPoint x="4" y="20" as="targetPoint" />
          </mxGeometry>
        </mxCell>
        <mxCell id="nCCayTrm1Lx8QwOALpIn-36" style="vsdxID=12;edgeStyle=none;startArrow=none;endArrow=none;startSize=5;endSize=5;strokeColor=#000000;spacingTop=0;spacingBottom=0;spacingLeft=0;spacingRight=0;verticalAlign=middle;html=1;labelBackgroundColor=#ffffff;rounded=0;" edge="1" parent="nCCayTrm1Lx8QwOALpIn-29">
          <mxGeometry relative="1" as="geometry">
            <Array as="points" />
            <mxPoint x="24" y="30" as="sourcePoint" />
            <mxPoint x="24" y="10" as="targetPoint" />
          </mxGeometry>
        </mxCell>
        <mxCell id="nCCayTrm1Lx8QwOALpIn-37" style="vsdxID=13;edgeStyle=none;startArrow=none;endArrow=none;startSize=5;endSize=5;strokeColor=#000000;spacingTop=0;spacingBottom=0;spacingLeft=0;spacingRight=0;verticalAlign=middle;html=1;labelBackgroundColor=#ffffff;rounded=0;" edge="1" parent="nCCayTrm1Lx8QwOALpIn-29">
          <mxGeometry relative="1" as="geometry">
            <Array as="points" />
            <mxPoint x="32" y="30" as="sourcePoint" />
            <mxPoint x="32" y="10" as="targetPoint" />
          </mxGeometry>
        </mxCell>
        <mxCell id="nCCayTrm1Lx8QwOALpIn-38" style="vsdxID=14;edgeStyle=none;startArrow=none;endArrow=classic;startSize=5;endSize=5;strokeColor=#000000;spacingTop=0;spacingBottom=0;spacingLeft=0;spacingRight=0;verticalAlign=middle;html=1;labelBackgroundColor=#ffffff;rounded=0;" edge="1" parent="nCCayTrm1Lx8QwOALpIn-29">
          <mxGeometry relative="1" as="geometry">
            <mxPoint as="offset" />
            <Array as="points" />
            <mxPoint x="80" y="20" as="sourcePoint" />
            <mxPoint x="60" y="20" as="targetPoint" />
          </mxGeometry>
        </mxCell>
        <mxCell id="nCCayTrm1Lx8QwOALpIn-39" value="rd_data FIFO" style="text;html=1;align=center;verticalAlign=middle;whiteSpace=wrap;rounded=0;" vertex="1" parent="1">
          <mxGeometry x="180" y="990" width="60" height="30" as="geometry" />
        </mxCell>
        <mxCell id="nCCayTrm1Lx8QwOALpIn-40" value="Data" style="text;html=1;align=center;verticalAlign=middle;whiteSpace=wrap;rounded=0;fontStyle=2" vertex="1" parent="1">
          <mxGeometry x="182" y="920" width="60" height="30" as="geometry" />
        </mxCell>
        <mxCell id="nCCayTrm1Lx8QwOALpIn-51" style="vsdxID=5;fillColor=none;gradientColor=none;strokeColor=none;labelBackgroundColor=none;rounded=0;html=1;whiteSpace=wrap;rotation=90;" vertex="1" parent="1">
          <mxGeometry x="260" y="730" width="80" height="40" as="geometry" />
        </mxCell>
        <mxCell id="nCCayTrm1Lx8QwOALpIn-52" value="" style="verticalAlign=middle;align=center;vsdxID=6;fillColor=#dae8fc;shape=stencil(nZBLDoAgDERP0z3SIyjew0SURgSD+Lu9kMZoXLhwN9O+tukAlrNpJg1SzDH4QW/URgNYgZTkjA4UkwJUgGXng+6DX1zLfmoymdXo17xh5zmRJ6Q42BWCfc2oJfdAr+Yv+AP9Cb7OJ3H/2JG1HNGz/84klThPVCc=);strokeColor=#6c8ebf;spacingTop=-3;spacingBottom=-3;spacingLeft=-3;spacingRight=-3;labelBackgroundColor=none;rounded=0;html=1;whiteSpace=wrap;rotation=90;" vertex="1" parent="nCCayTrm1Lx8QwOALpIn-51">
          <mxGeometry x="10" y="10" width="60" height="40" as="geometry" />
        </mxCell>
        <mxCell id="nCCayTrm1Lx8QwOALpIn-53" style="vsdxID=8;fillColor=#FFFFFF;gradientColor=none;shape=stencil(UzV2Ls5ILEhVNTIoLinKz04tz0wpyVA1dlE1MsrMy0gtyiwBslSNXVWNndPyi1LTi/JL81Ig/IJEkEoQKze/DGRCBUSfAUiHkUElMs8NojAnMw9JoaEB2UphfKyK8SoFMhAOh/gZWQ7dk0AhSAAZuwIA);strokeColor=#000000;labelBackgroundColor=#ffffff;rounded=0;html=1;whiteSpace=wrap;rotation=90;" vertex="1" parent="nCCayTrm1Lx8QwOALpIn-51">
          <mxGeometry x="28" y="18" width="24" height="20" as="geometry" />
        </mxCell>
        <mxCell id="nCCayTrm1Lx8QwOALpIn-54" style="vsdxID=7;edgeStyle=none;startArrow=none;endArrow=classic;startSize=5;endSize=5;strokeColor=#000000;spacingTop=0;spacingBottom=0;spacingLeft=0;spacingRight=0;verticalAlign=middle;html=1;labelBackgroundColor=#ffffff;rounded=0;" edge="1" parent="nCCayTrm1Lx8QwOALpIn-51">
          <mxGeometry relative="1" as="geometry">
            <mxPoint as="offset" />
            <Array as="points" />
            <mxPoint x="40" y="4" as="sourcePoint" />
            <mxPoint x="40" y="20" as="targetPoint" />
          </mxGeometry>
        </mxCell>
        <mxCell id="nCCayTrm1Lx8QwOALpIn-55" style="vsdxID=9;edgeStyle=none;startArrow=none;endArrow=none;startSize=5;endSize=5;strokeColor=#000000;spacingTop=0;spacingBottom=0;spacingLeft=0;spacingRight=0;verticalAlign=middle;html=1;labelBackgroundColor=#ffffff;rounded=0;" edge="1" parent="nCCayTrm1Lx8QwOALpIn-51">
          <mxGeometry relative="1" as="geometry">
            <Array as="points" />
            <mxPoint x="50" y="32" as="sourcePoint" />
            <mxPoint x="30" y="32" as="targetPoint" />
          </mxGeometry>
        </mxCell>
        <mxCell id="nCCayTrm1Lx8QwOALpIn-56" style="vsdxID=10;edgeStyle=none;startArrow=none;endArrow=none;startSize=5;endSize=5;strokeColor=#000000;spacingTop=0;spacingBottom=0;spacingLeft=0;spacingRight=0;verticalAlign=middle;html=1;labelBackgroundColor=#ffffff;rounded=0;" edge="1" parent="nCCayTrm1Lx8QwOALpIn-51">
          <mxGeometry relative="1" as="geometry">
            <Array as="points" />
            <mxPoint x="50" y="24" as="sourcePoint" />
            <mxPoint x="30" y="24" as="targetPoint" />
          </mxGeometry>
        </mxCell>
        <mxCell id="nCCayTrm1Lx8QwOALpIn-57" style="vsdxID=11;edgeStyle=none;startArrow=none;endArrow=classic;startSize=5;endSize=5;strokeColor=#000000;spacingTop=0;spacingBottom=0;spacingLeft=0;spacingRight=0;verticalAlign=middle;html=1;labelBackgroundColor=#ffffff;rounded=0;" edge="1" parent="nCCayTrm1Lx8QwOALpIn-51">
          <mxGeometry relative="1" as="geometry">
            <mxPoint as="offset" />
            <Array as="points" />
            <mxPoint x="40" y="40" as="sourcePoint" />
            <mxPoint x="40" y="56" as="targetPoint" />
          </mxGeometry>
        </mxCell>
        <mxCell id="nCCayTrm1Lx8QwOALpIn-58" style="vsdxID=12;edgeStyle=none;startArrow=none;endArrow=none;startSize=5;endSize=5;strokeColor=#000000;spacingTop=0;spacingBottom=0;spacingLeft=0;spacingRight=0;verticalAlign=middle;html=1;labelBackgroundColor=#ffffff;rounded=0;" edge="1" parent="nCCayTrm1Lx8QwOALpIn-51">
          <mxGeometry relative="1" as="geometry">
            <Array as="points" />
            <mxPoint x="50" y="36" as="sourcePoint" />
            <mxPoint x="30" y="36" as="targetPoint" />
          </mxGeometry>
        </mxCell>
        <mxCell id="nCCayTrm1Lx8QwOALpIn-59" style="vsdxID=13;edgeStyle=none;startArrow=none;endArrow=none;startSize=5;endSize=5;strokeColor=#000000;spacingTop=0;spacingBottom=0;spacingLeft=0;spacingRight=0;verticalAlign=middle;html=1;labelBackgroundColor=#ffffff;rounded=0;" edge="1" parent="nCCayTrm1Lx8QwOALpIn-51">
          <mxGeometry relative="1" as="geometry">
            <Array as="points" />
            <mxPoint x="50" y="28" as="sourcePoint" />
            <mxPoint x="30" y="28" as="targetPoint" />
          </mxGeometry>
        </mxCell>
        <mxCell id="nCCayTrm1Lx8QwOALpIn-60" style="vsdxID=14;edgeStyle=none;startArrow=none;endArrow=classic;startSize=5;endSize=5;strokeColor=#000000;spacingTop=0;spacingBottom=0;spacingLeft=0;spacingRight=0;verticalAlign=middle;html=1;labelBackgroundColor=#ffffff;rounded=0;" edge="1" parent="nCCayTrm1Lx8QwOALpIn-51">
          <mxGeometry relative="1" as="geometry">
            <mxPoint as="offset" />
            <Array as="points" />
            <mxPoint x="40" y="-20" as="sourcePoint" />
            <mxPoint x="40" as="targetPoint" />
          </mxGeometry>
        </mxCell>
        <mxCell id="nCCayTrm1Lx8QwOALpIn-61" value="rd_resp FIFO" style="text;html=1;align=center;verticalAlign=middle;whiteSpace=wrap;rounded=0;" vertex="1" parent="1">
          <mxGeometry x="320" y="740" width="60" height="30" as="geometry" />
        </mxCell>
        <mxCell id="nCCayTrm1Lx8QwOALpIn-62" value="Is Last" style="text;html=1;align=center;verticalAlign=middle;whiteSpace=wrap;rounded=0;fontStyle=2" vertex="1" parent="1">
          <mxGeometry x="220" y="740" width="60" height="30" as="geometry" />
        </mxCell>
        <mxCell id="nCCayTrm1Lx8QwOALpIn-63" value="RRESP" style="ellipse;whiteSpace=wrap;html=1;fillColor=#d5e8d4;strokeColor=#82b366;" vertex="1" parent="1">
          <mxGeometry x="325" y="850" width="50" height="50" as="geometry" />
        </mxCell>
        <mxCell id="nCCayTrm1Lx8QwOALpIn-65" value="" style="endArrow=oval;html=1;rounded=0;endFill=1;" edge="1" parent="1">
          <mxGeometry width="50" height="50" relative="1" as="geometry">
            <mxPoint x="290" y="120" as="sourcePoint" />
            <mxPoint x="290" y="100" as="targetPoint" />
          </mxGeometry>
        </mxCell>
        <mxCell id="nCCayTrm1Lx8QwOALpIn-67" value="Beats" style="text;html=1;align=center;verticalAlign=middle;whiteSpace=wrap;rounded=0;fontStyle=2" vertex="1" parent="1">
          <mxGeometry x="210" y="150" width="60" height="30" as="geometry" />
        </mxCell>
        <mxCell id="nCCayTrm1Lx8QwOALpIn-68" value="" style="verticalAlign=middle;align=center;vsdxID=6;fillColor=#dae8fc;shape=stencil(nZBLDoAgDERP0z3SIyjew0SURgSD+Lu9kMZoXLhwN9O+tukAlrNpJg1SzDH4QW/URgNYgZTkjA4UkwJUgGXng+6DX1zLfmoymdXo17xh5zmRJ6Q42BWCfc2oJfdAr+Yv+AP9Cb7OJ3H/2JG1HNGz/84klThPVCc=);strokeColor=#6c8ebf;spacingTop=-3;spacingBottom=-3;spacingLeft=-3;spacingRight=-3;labelBackgroundColor=none;rounded=0;html=1;whiteSpace=wrap;rotation=90;" vertex="1" parent="1">
          <mxGeometry x="260" y="290" width="60" height="40" as="geometry" />
        </mxCell>
        <mxCell id="nCCayTrm1Lx8QwOALpIn-69" style="vsdxID=8;fillColor=#FFFFFF;gradientColor=none;shape=stencil(UzV2Ls5ILEhVNTIoLinKz04tz0wpyVA1dlE1MsrMy0gtyiwBslSNXVWNndPyi1LTi/JL81Ig/IJEkEoQKze/DGRCBUSfAUiHkUElMs8NojAnMw9JoaEB2UphfKyK8SoFMhAOh/gZWQ7dk0AhSAAZuwIA);strokeColor=#000000;labelBackgroundColor=#ffffff;rounded=0;html=1;whiteSpace=wrap;rotation=90;" vertex="1" parent="1">
          <mxGeometry x="278" y="298" width="24" height="20" as="geometry" />
        </mxCell>
        <mxCell id="nCCayTrm1Lx8QwOALpIn-70" style="vsdxID=7;edgeStyle=none;startArrow=none;endArrow=classic;startSize=5;endSize=5;strokeColor=#000000;spacingTop=0;spacingBottom=0;spacingLeft=0;spacingRight=0;verticalAlign=middle;html=1;labelBackgroundColor=#ffffff;rounded=0;" edge="1" parent="1">
          <mxGeometry relative="1" as="geometry">
            <mxPoint as="offset" />
            <Array as="points" />
            <mxPoint x="290" y="284" as="sourcePoint" />
            <mxPoint x="290" y="300" as="targetPoint" />
          </mxGeometry>
        </mxCell>
        <mxCell id="nCCayTrm1Lx8QwOALpIn-71" style="vsdxID=9;edgeStyle=none;startArrow=none;endArrow=none;startSize=5;endSize=5;strokeColor=#000000;spacingTop=0;spacingBottom=0;spacingLeft=0;spacingRight=0;verticalAlign=middle;html=1;labelBackgroundColor=#ffffff;rounded=0;" edge="1" parent="1">
          <mxGeometry relative="1" as="geometry">
            <Array as="points" />
            <mxPoint x="300" y="312" as="sourcePoint" />
            <mxPoint x="280" y="312" as="targetPoint" />
          </mxGeometry>
        </mxCell>
        <mxCell id="nCCayTrm1Lx8QwOALpIn-72" style="vsdxID=10;edgeStyle=none;startArrow=none;endArrow=none;startSize=5;endSize=5;strokeColor=#000000;spacingTop=0;spacingBottom=0;spacingLeft=0;spacingRight=0;verticalAlign=middle;html=1;labelBackgroundColor=#ffffff;rounded=0;" edge="1" parent="1">
          <mxGeometry relative="1" as="geometry">
            <Array as="points" />
            <mxPoint x="300" y="304" as="sourcePoint" />
            <mxPoint x="280" y="304" as="targetPoint" />
          </mxGeometry>
        </mxCell>
        <mxCell id="nCCayTrm1Lx8QwOALpIn-73" style="vsdxID=11;edgeStyle=none;startArrow=none;endArrow=classic;startSize=5;endSize=5;strokeColor=#000000;spacingTop=0;spacingBottom=0;spacingLeft=0;spacingRight=0;verticalAlign=middle;html=1;labelBackgroundColor=#ffffff;rounded=0;" edge="1" parent="1">
          <mxGeometry relative="1" as="geometry">
            <mxPoint as="offset" />
            <Array as="points" />
            <mxPoint x="290" y="320" as="sourcePoint" />
            <mxPoint x="290" y="336" as="targetPoint" />
          </mxGeometry>
        </mxCell>
        <mxCell id="nCCayTrm1Lx8QwOALpIn-74" style="vsdxID=12;edgeStyle=none;startArrow=none;endArrow=none;startSize=5;endSize=5;strokeColor=#000000;spacingTop=0;spacingBottom=0;spacingLeft=0;spacingRight=0;verticalAlign=middle;html=1;labelBackgroundColor=#ffffff;rounded=0;" edge="1" parent="1">
          <mxGeometry relative="1" as="geometry">
            <Array as="points" />
            <mxPoint x="300" y="316" as="sourcePoint" />
            <mxPoint x="280" y="316" as="targetPoint" />
          </mxGeometry>
        </mxCell>
        <mxCell id="nCCayTrm1Lx8QwOALpIn-75" style="vsdxID=13;edgeStyle=none;startArrow=none;endArrow=none;startSize=5;endSize=5;strokeColor=#000000;spacingTop=0;spacingBottom=0;spacingLeft=0;spacingRight=0;verticalAlign=middle;html=1;labelBackgroundColor=#ffffff;rounded=0;" edge="1" parent="1">
          <mxGeometry relative="1" as="geometry">
            <Array as="points" />
            <mxPoint x="300" y="308" as="sourcePoint" />
            <mxPoint x="280" y="308" as="targetPoint" />
          </mxGeometry>
        </mxCell>
        <mxCell id="nCCayTrm1Lx8QwOALpIn-76" value="" style="endArrow=classic;html=1;rounded=0;entryX=0.5;entryY=0;entryDx=0;entryDy=0;" edge="1" parent="1">
          <mxGeometry width="50" height="50" relative="1" as="geometry">
            <mxPoint x="290" y="340" as="sourcePoint" />
            <mxPoint x="290" y="360" as="targetPoint" />
          </mxGeometry>
        </mxCell>
        <mxCell id="nCCayTrm1Lx8QwOALpIn-77" value="wr_resp FIFO" style="text;html=1;align=center;verticalAlign=middle;whiteSpace=wrap;rounded=0;" vertex="1" parent="1">
          <mxGeometry x="310" y="290" width="60" height="30" as="geometry" />
        </mxCell>
        <mxCell id="nCCayTrm1Lx8QwOALpIn-78" value="Is Last" style="text;html=1;align=center;verticalAlign=middle;whiteSpace=wrap;rounded=0;fontStyle=2" vertex="1" parent="1">
          <mxGeometry x="210" y="290" width="60" height="30" as="geometry" />
        </mxCell>
        <mxCell id="nCCayTrm1Lx8QwOALpIn-79" value="" style="endArrow=none;html=1;rounded=0;entryX=0.5;entryY=1;entryDx=0;entryDy=0;startArrow=classic;startFill=1;" edge="1" parent="1" target="TQxonoG_CcpRqNHflivV-3">
          <mxGeometry width="50" height="50" relative="1" as="geometry">
            <mxPoint x="290" y="280" as="sourcePoint" />
            <mxPoint x="340" y="230" as="targetPoint" />
          </mxGeometry>
        </mxCell>
        <mxCell id="nCCayTrm1Lx8QwOALpIn-85" value="CmdWr" style="ellipse;whiteSpace=wrap;html=1;fillColor=#f8cecc;strokeColor=#b85450;" vertex="1" parent="1">
          <mxGeometry x="30" y="75" width="50" height="50" as="geometry" />
        </mxCell>
        <mxCell id="nCCayTrm1Lx8QwOALpIn-86" value="Wr" style="ellipse;whiteSpace=wrap;html=1;fillColor=#f8cecc;strokeColor=#b85450;" vertex="1" parent="1">
          <mxGeometry x="380" y="287" width="50" height="50" as="geometry" />
        </mxCell>
        <mxCell id="nCCayTrm1Lx8QwOALpIn-87" value="" style="endArrow=classic;html=1;rounded=0;entryX=0.5;entryY=0;entryDx=0;entryDy=0;" edge="1" parent="1" target="nCCayTrm1Lx8QwOALpIn-26">
          <mxGeometry width="50" height="50" relative="1" as="geometry">
            <mxPoint x="350" y="240" as="sourcePoint" />
            <mxPoint x="400" y="190" as="targetPoint" />
            <Array as="points">
              <mxPoint x="565" y="240" />
            </Array>
          </mxGeometry>
        </mxCell>
        <mxCell id="nCCayTrm1Lx8QwOALpIn-88" value="WrDone" style="ellipse;whiteSpace=wrap;html=1;fillColor=#f8cecc;strokeColor=#b85450;" vertex="1" parent="1">
          <mxGeometry x="140" y="365" width="50" height="50" as="geometry" />
        </mxCell>
        <mxCell id="nCCayTrm1Lx8QwOALpIn-89" value="CmdRd" style="ellipse;whiteSpace=wrap;html=1;fillColor=#f8cecc;strokeColor=#b85450;" vertex="1" parent="1">
          <mxGeometry x="70" y="665" width="50" height="50" as="geometry" />
        </mxCell>
        <mxCell id="nCCayTrm1Lx8QwOALpIn-91" value="RResp Handling" style="rounded=1;whiteSpace=wrap;html=1;fillColor=#fff2cc;strokeColor=#d6b656;" vertex="1" parent="1">
          <mxGeometry x="160" y="830" width="120" height="60" as="geometry" />
        </mxCell>
        <mxCell id="nCCayTrm1Lx8QwOALpIn-92" value="RdDone" style="ellipse;whiteSpace=wrap;html=1;fillColor=#f8cecc;strokeColor=#b85450;" vertex="1" parent="1">
          <mxGeometry x="62.5" y="835" width="50" height="50" as="geometry" />
        </mxCell>
        <mxCell id="nCCayTrm1Lx8QwOALpIn-93" value="Rd" style="ellipse;whiteSpace=wrap;html=1;fillColor=#f8cecc;strokeColor=#b85450;" vertex="1" parent="1">
          <mxGeometry x="62.5" y="945" width="50" height="50" as="geometry" />
        </mxCell>
        <mxCell id="nCCayTrm1Lx8QwOALpIn-94" value="" style="endArrow=classic;html=1;rounded=0;entryX=0;entryY=0.5;entryDx=0;entryDy=0;" edge="1" parent="1" target="TQxonoG_CcpRqNHflivV-1">
          <mxGeometry width="50" height="50" relative="1" as="geometry">
            <mxPoint x="80" y="100" as="sourcePoint" />
            <mxPoint x="130" y="50" as="targetPoint" />
          </mxGeometry>
        </mxCell>
        <mxCell id="nCCayTrm1Lx8QwOALpIn-95" value="" style="endArrow=classic;html=1;rounded=0;entryX=0;entryY=0.5;entryDx=0;entryDy=0;exitX=1;exitY=0.5;exitDx=0;exitDy=0;" edge="1" parent="1" source="TQxonoG_CcpRqNHflivV-2" target="nCCayTrm1Lx8QwOALpIn-25">
          <mxGeometry width="50" height="50" relative="1" as="geometry">
            <mxPoint x="480" y="110" as="sourcePoint" />
            <mxPoint x="530" y="60" as="targetPoint" />
          </mxGeometry>
        </mxCell>
        <mxCell id="nCCayTrm1Lx8QwOALpIn-96" value="" style="endArrow=classic;html=1;rounded=0;" edge="1" parent="1" target="nCCayTrm1Lx8QwOALpIn-26">
          <mxGeometry width="50" height="50" relative="1" as="geometry">
            <mxPoint x="510" y="310" as="sourcePoint" />
            <mxPoint x="560" y="260" as="targetPoint" />
          </mxGeometry>
        </mxCell>
        <mxCell id="nCCayTrm1Lx8QwOALpIn-97" value="" style="endArrow=classic;html=1;rounded=0;entryX=1;entryY=0.5;entryDx=0;entryDy=0;" edge="1" parent="1" source="nCCayTrm1Lx8QwOALpIn-27" target="a1WiUTe3sYi8W62VwQdR-17">
          <mxGeometry width="50" height="50" relative="1" as="geometry">
            <mxPoint x="380" y="390" as="sourcePoint" />
            <mxPoint x="380" y="450" as="targetPoint" />
          </mxGeometry>
        </mxCell>
        <mxCell id="nCCayTrm1Lx8QwOALpIn-98" value="" style="endArrow=classic;html=1;rounded=0;entryX=1;entryY=0.5;entryDx=0;entryDy=0;" edge="1" parent="1" target="nCCayTrm1Lx8QwOALpIn-88">
          <mxGeometry width="50" height="50" relative="1" as="geometry">
            <mxPoint x="230" y="390" as="sourcePoint" />
            <mxPoint x="280" y="340" as="targetPoint" />
          </mxGeometry>
        </mxCell>
        <mxCell id="nCCayTrm1Lx8QwOALpIn-99" value="" style="endArrow=classic;html=1;rounded=0;entryX=0;entryY=0.5;entryDx=0;entryDy=0;" edge="1" parent="1" source="nCCayTrm1Lx8QwOALpIn-89" target="TQxonoG_CcpRqNHflivV-4">
          <mxGeometry width="50" height="50" relative="1" as="geometry">
            <mxPoint x="120" y="640" as="sourcePoint" />
            <mxPoint x="170" y="590" as="targetPoint" />
          </mxGeometry>
        </mxCell>
        <mxCell id="nCCayTrm1Lx8QwOALpIn-100" value="" style="endArrow=classic;html=1;rounded=0;entryX=0;entryY=0.5;entryDx=0;entryDy=0;exitX=1;exitY=0.5;exitDx=0;exitDy=0;" edge="1" parent="1" source="TQxonoG_CcpRqNHflivV-5" target="nCCayTrm1Lx8QwOALpIn-28">
          <mxGeometry width="50" height="50" relative="1" as="geometry">
            <mxPoint x="440" y="630" as="sourcePoint" />
            <mxPoint x="490" y="580" as="targetPoint" />
          </mxGeometry>
        </mxCell>
        <mxCell id="nCCayTrm1Lx8QwOALpIn-101" value="" style="endArrow=oval;html=1;rounded=0;endFill=1;exitX=0.037;exitY=0.5;exitDx=0;exitDy=0;exitPerimeter=0;" edge="1" parent="1" source="nCCayTrm1Lx8QwOALpIn-51">
          <mxGeometry width="50" height="50" relative="1" as="geometry">
            <mxPoint x="299.86" y="710" as="sourcePoint" />
            <mxPoint x="299.86" y="690" as="targetPoint" />
          </mxGeometry>
        </mxCell>
        <mxCell id="nCCayTrm1Lx8QwOALpIn-103" value="" style="endArrow=classic;html=1;rounded=0;entryX=1;entryY=0.25;entryDx=0;entryDy=0;exitX=1;exitY=0.5;exitDx=0;exitDy=0;" edge="1" parent="1" source="nCCayTrm1Lx8QwOALpIn-51" target="nCCayTrm1Lx8QwOALpIn-91">
          <mxGeometry width="50" height="50" relative="1" as="geometry">
            <mxPoint x="360" y="830" as="sourcePoint" />
            <mxPoint x="410" y="780" as="targetPoint" />
            <Array as="points">
              <mxPoint x="300" y="845" />
            </Array>
          </mxGeometry>
        </mxCell>
        <mxCell id="nCCayTrm1Lx8QwOALpIn-104" value="" style="endArrow=classic;html=1;rounded=0;entryX=1;entryY=0.75;entryDx=0;entryDy=0;exitX=0;exitY=0.5;exitDx=0;exitDy=0;" edge="1" parent="1" source="nCCayTrm1Lx8QwOALpIn-63" target="nCCayTrm1Lx8QwOALpIn-91">
          <mxGeometry width="50" height="50" relative="1" as="geometry">
            <mxPoint x="370" y="820" as="sourcePoint" />
            <mxPoint x="420" y="770" as="targetPoint" />
          </mxGeometry>
        </mxCell>
        <mxCell id="nCCayTrm1Lx8QwOALpIn-105" value="" style="endArrow=classic;html=1;rounded=0;entryX=1;entryY=0.5;entryDx=0;entryDy=0;exitX=0;exitY=0.5;exitDx=0;exitDy=0;" edge="1" parent="1" source="nCCayTrm1Lx8QwOALpIn-91" target="nCCayTrm1Lx8QwOALpIn-92">
          <mxGeometry width="50" height="50" relative="1" as="geometry">
            <mxPoint x="130" y="830" as="sourcePoint" />
            <mxPoint x="160" y="760" as="targetPoint" />
          </mxGeometry>
        </mxCell>
        <mxCell id="nCCayTrm1Lx8QwOALpIn-106" value="" style="endArrow=none;html=1;rounded=0;startArrow=oval;startFill=1;entryX=0;entryY=0.5;entryDx=0;entryDy=0;endFill=0;" edge="1" parent="1" target="nCCayTrm1Lx8QwOALpIn-29">
          <mxGeometry width="50" height="50" relative="1" as="geometry">
            <mxPoint x="300" y="845" as="sourcePoint" />
            <mxPoint x="-120" y="855" as="targetPoint" />
            <Array as="points">
              <mxPoint x="300" y="970" />
            </Array>
          </mxGeometry>
        </mxCell>
        <mxCell id="nCCayTrm1Lx8QwOALpIn-107" value="" style="endArrow=classic;html=1;rounded=0;" edge="1" parent="1" target="nCCayTrm1Lx8QwOALpIn-93">
          <mxGeometry width="50" height="50" relative="1" as="geometry">
            <mxPoint x="180" y="970" as="sourcePoint" />
            <mxPoint x="230" y="920" as="targetPoint" />
          </mxGeometry>
        </mxCell>
        <mxCell id="nCCayTrm1Lx8QwOALpIn-108" value="User&lt;div&gt;Port&lt;/div&gt;" style="ellipse;whiteSpace=wrap;html=1;fillColor=#f8cecc;strokeColor=#b85450;" vertex="1" parent="1">
          <mxGeometry x="70" y="460" width="50" height="50" as="geometry" />
        </mxCell>
        <mxCell id="nCCayTrm1Lx8QwOALpIn-109" value="AXI&lt;div&gt;Channel&lt;/div&gt;" style="ellipse;whiteSpace=wrap;html=1;fillColor=#d5e8d4;strokeColor=#82b366;" vertex="1" parent="1">
          <mxGeometry x="140" y="462" width="50" height="47" as="geometry" />
        </mxCell>
        <mxCell id="nCCayTrm1Lx8QwOALpIn-110" value="User&lt;div&gt;Port&lt;/div&gt;" style="ellipse;whiteSpace=wrap;html=1;fillColor=#f8cecc;strokeColor=#b85450;" vertex="1" parent="1">
          <mxGeometry x="62.5" y="1040" width="50" height="50" as="geometry" />
        </mxCell>
        <mxCell id="nCCayTrm1Lx8QwOALpIn-111" value="AXI&lt;div&gt;Channel&lt;/div&gt;" style="ellipse;whiteSpace=wrap;html=1;fillColor=#d5e8d4;strokeColor=#82b366;" vertex="1" parent="1">
          <mxGeometry x="132.5" y="1042" width="50" height="47" as="geometry" />
        </mxCell>
        <mxCell id="nCCayTrm1Lx8QwOALpIn-112" value="Logic" style="rounded=1;whiteSpace=wrap;html=1;fillColor=#fff2cc;strokeColor=#d6b656;" vertex="1" parent="1">
          <mxGeometry x="218" y="465" width="60" height="40" as="geometry" />
        </mxCell>
        <mxCell id="nCCayTrm1Lx8QwOALpIn-113" value="Logic" style="rounded=1;whiteSpace=wrap;html=1;fillColor=#fff2cc;strokeColor=#d6b656;" vertex="1" parent="1">
          <mxGeometry x="210" y="1045.5" width="60" height="40" as="geometry" />
        </mxCell>
      </root>
    </mxGraphModel>
  </diagram>
</mxfile>
